<svg width="313" height="48" viewBox="0 0 313 48" fill="none" xmlns="http://www.w3.org/2000/svg">
<path d="M59.216 32L65.144 23.336L59.792 15.536L64.16 15.536L67.568 20.744H67.688L71.072 15.536H75.176L69.8 23.336L75.728 32H71.36L67.4 25.904H67.28L63.344 32H59.216ZM77.7693 32V15.536L86.7933 15.536C88.0093 15.536 89.0173 15.752 89.8173 16.184C90.6333 16.616 91.2413 17.224 91.6413 18.008C92.0413 18.776 92.2413 19.664 92.2413 20.672C92.2413 21.744 92.0013 22.696 91.5213 23.528C91.0413 24.344 90.3453 24.968 89.4333 25.4L92.7933 32H88.8333L85.9293 26H81.3453V32L77.7693 32ZM81.3453 23.168H86.3133C87.0333 23.168 87.5933 22.952 87.9933 22.52C88.3933 22.072 88.5933 21.472 88.5933 20.72C88.5933 20.24 88.5053 19.832 88.3293 19.496C88.1533 19.144 87.8973 18.88 87.5613 18.704C87.2253 18.528 86.8093 18.44 86.3133 18.44H81.3453V23.168ZM95.3006 32V15.536L103.869 15.536C105.053 15.536 106.037 15.76 106.821 16.208C107.621 16.64 108.221 17.256 108.621 18.056C109.037 18.84 109.245 19.776 109.245 20.864C109.245 21.952 109.029 22.904 108.597 23.72C108.181 24.52 107.565 25.144 106.749 25.592C105.933 26.04 104.933 26.264 103.749 26.264H98.8766V32H95.3006ZM98.8766 23.336H103.269C104.021 23.336 104.597 23.12 104.997 22.688C105.413 22.256 105.621 21.656 105.621 20.888C105.621 20.36 105.533 19.92 105.357 19.568C105.181 19.216 104.917 18.944 104.565 18.752C104.229 18.56 103.797 18.464 103.269 18.464L98.8766 18.464V23.336ZM116.803 32.288C115.411 32.288 114.243 32.056 113.299 31.592C112.355 31.112 111.643 30.384 111.163 29.408C110.683 28.432 110.443 27.192 110.443 25.688C110.443 24.168 110.683 22.928 111.163 21.968C111.643 20.992 112.347 20.272 113.275 19.808C114.219 19.328 115.371 19.088 116.731 19.088C118.011 19.088 119.091 19.32 119.971 19.784C120.851 20.232 121.515 20.936 121.963 21.896C122.411 22.84 122.635 24.064 122.635 25.568V26.432H113.827C113.859 27.168 113.971 27.792 114.163 28.304C114.371 28.816 114.683 29.2 115.099 29.456C115.531 29.696 116.099 29.816 116.803 29.816C117.187 29.816 117.531 29.768 117.835 29.672C118.155 29.576 118.427 29.432 118.651 29.24C118.875 29.048 119.051 28.808 119.179 28.52C119.307 28.232 119.371 27.904 119.371 27.536H122.635C122.635 28.336 122.491 29.032 122.203 29.624C121.915 30.216 121.515 30.712 121.003 31.112C120.491 31.496 119.875 31.792 119.155 32C118.451 32.192 117.667 32.288 116.803 32.288ZM113.875 24.32H119.203C119.203 23.84 119.139 23.424 119.011 23.072C118.899 22.72 118.739 22.432 118.531 22.208C118.323 21.984 118.067 21.824 117.763 21.728C117.475 21.616 117.147 21.56 116.779 21.56C116.171 21.56 115.659 21.664 115.243 21.872C114.843 22.064 114.531 22.368 114.307 22.784C114.099 23.184 113.955 23.696 113.875 24.32ZM129.547 32.288C128.507 32.288 127.603 32.056 126.835 31.592C126.083 31.112 125.499 30.384 125.083 29.408C124.667 28.432 124.459 27.184 124.459 25.664C124.459 24.144 124.667 22.904 125.083 21.944C125.515 20.968 126.099 20.248 126.835 19.784C127.587 19.32 128.451 19.088 129.427 19.088C129.971 19.088 130.475 19.152 130.939 19.28C131.419 19.392 131.835 19.576 132.187 19.832C132.555 20.088 132.867 20.4 133.123 20.768H133.267V14.648L136.603 14.648V32H133.867L133.603 30.296H133.435C133.019 30.968 132.475 31.472 131.803 31.808C131.131 32.128 130.379 32.288 129.547 32.288ZM130.603 29.552C131.227 29.552 131.731 29.408 132.115 29.12C132.515 28.832 132.811 28.416 133.003 27.872C133.195 27.328 133.291 26.68 133.291 25.928V25.496C133.291 24.936 133.235 24.424 133.123 23.96C133.027 23.496 132.867 23.112 132.643 22.808C132.419 22.488 132.139 22.248 131.803 22.088C131.467 21.912 131.067 21.824 130.603 21.824C129.931 21.824 129.395 21.96 128.995 22.232C128.595 22.488 128.307 22.888 128.131 23.432C127.955 23.96 127.867 24.624 127.867 25.424V25.976C127.867 26.776 127.955 27.44 128.131 27.968C128.307 28.496 128.595 28.896 128.995 29.168C129.395 29.424 129.931 29.552 130.603 29.552ZM139.684 17.528V14.648L143.02 14.648V17.528H139.684ZM139.684 32V19.376H143.02V32H139.684ZM149.419 32.288C149.003 32.288 148.555 32.24 148.075 32.144C147.611 32.048 147.171 31.88 146.755 31.64C146.339 31.384 145.995 31.024 145.723 30.56C145.467 30.08 145.339 29.472 145.339 28.736C145.339 27.856 145.531 27.128 145.915 26.552C146.299 25.976 146.843 25.528 147.547 25.208C148.267 24.872 149.123 24.64 150.115 24.512C151.107 24.384 152.203 24.32 153.403 24.32V23.384C153.403 23.016 153.339 22.696 153.211 22.424C153.099 22.152 152.891 21.936 152.587 21.776C152.299 21.616 151.891 21.536 151.363 21.536C150.835 21.536 150.403 21.6 150.067 21.728C149.747 21.856 149.515 22.024 149.371 22.232C149.243 22.424 149.179 22.64 149.179 22.88V23.168H145.939C145.923 23.088 145.915 23.016 145.915 22.952C145.915 22.872 145.915 22.776 145.915 22.664C145.915 21.928 146.139 21.296 146.587 20.768C147.035 20.224 147.667 19.808 148.483 19.52C149.299 19.232 150.251 19.088 151.339 19.088C152.507 19.088 153.483 19.24 154.267 19.544C155.067 19.848 155.675 20.296 156.091 20.888C156.523 21.48 156.739 22.224 156.739 23.12V28.856C156.739 29.144 156.819 29.36 156.979 29.504C157.155 29.632 157.347 29.696 157.555 29.696H158.347V31.88C158.187 31.96 157.939 32.04 157.603 32.12C157.267 32.216 156.859 32.264 156.379 32.264C155.915 32.264 155.499 32.192 155.131 32.048C154.779 31.92 154.483 31.736 154.243 31.496C154.003 31.24 153.835 30.936 153.739 30.584H153.571C153.299 30.92 152.963 31.216 152.563 31.472C152.179 31.728 151.723 31.928 151.195 32.072C150.683 32.216 150.091 32.288 149.419 32.288ZM150.547 29.768C150.995 29.768 151.395 29.704 151.747 29.576C152.099 29.432 152.395 29.248 152.635 29.024C152.875 28.784 153.059 28.496 153.187 28.16C153.331 27.824 153.403 27.464 153.403 27.08V26.384C152.507 26.384 151.707 26.448 151.003 26.576C150.299 26.688 149.739 26.888 149.323 27.176C148.923 27.464 148.723 27.864 148.723 28.376C148.723 28.664 148.795 28.912 148.939 29.12C149.083 29.328 149.291 29.488 149.563 29.6C149.835 29.712 150.163 29.768 150.547 29.768Z" fill="#565D6D"/>
<path d="M45.2 14.1L48.5 14.1L48.5 38.3L15.5 38.3L15.5 14.1H18.8" stroke="#636AE8" stroke-width="2.64" stroke-miterlimit="10" stroke-linecap="square"/>
<path d="M32 14.1L32 33.9" stroke="#636AE8" stroke-width="2.64" stroke-miterlimit="10"/>
<path d="M32 14.1C32 14.1 29.6163 9.7 18.8 9.7L18.8 29.5C26.4307 29.5 32 33.9 32 33.9C32 33.9 37.2932 29.5 45.2 29.5V9.7C34.2913 9.7 32 14.1 32 14.1Z" stroke="#636AE8" stroke-width="2.64" stroke-miterlimit="10" stroke-linecap="round"/>
<path d="M165.574 25.52L177.306 25.52V27.018L165.574 27.018V25.52ZM170.46 26.5H172.322V31.246L170.46 31.246V26.5ZM171.412 18.716C172.336 18.716 173.148 18.8373 173.848 19.08C174.557 19.3133 175.108 19.6493 175.5 20.088C175.892 20.5267 176.088 21.04 176.088 21.628C176.088 22.2253 175.892 22.7433 175.5 23.182C175.108 23.6113 174.557 23.9473 173.848 24.19C173.148 24.4233 172.336 24.54 171.412 24.54C170.488 24.54 169.671 24.4233 168.962 24.19C168.262 23.9473 167.711 23.6113 167.31 23.182C166.918 22.7433 166.722 22.2253 166.722 21.628C166.722 21.04 166.918 20.5267 167.31 20.088C167.711 19.6493 168.262 19.3133 168.962 19.08C169.671 18.8373 170.488 18.716 171.412 18.716ZM171.398 20.186C170.838 20.186 170.348 20.242 169.928 20.354C169.517 20.466 169.2 20.6293 168.976 20.844C168.752 21.0493 168.64 21.3107 168.64 21.628C168.64 21.936 168.752 22.1973 168.976 22.412C169.2 22.6267 169.517 22.79 169.928 22.902C170.348 23.0047 170.838 23.056 171.398 23.056C171.977 23.056 172.471 23.0047 172.882 22.902C173.293 22.79 173.61 22.6267 173.834 22.412C174.067 22.1973 174.184 21.936 174.184 21.628C174.184 21.3107 174.067 21.0493 173.834 20.844C173.61 20.6293 173.293 20.466 172.882 20.354C172.471 20.242 171.977 20.186 171.398 20.186ZM187.371 18.254H189.247V31.26H187.371V18.254ZM179.153 26.724H180.301C181.066 26.724 181.79 26.7147 182.471 26.696C183.152 26.668 183.82 26.626 184.473 26.57C185.126 26.5047 185.794 26.4113 186.475 26.29L186.671 27.788C185.626 27.9747 184.594 28.1007 183.577 28.166C182.569 28.222 181.477 28.25 180.301 28.25H179.153V26.724ZM179.125 19.36L185.243 19.36V24.386L181.043 24.386V27.298H179.153V22.916L183.353 22.916V20.858H179.125V19.36ZM191.346 23.294H203.064V24.764H191.346V23.294ZM192.788 21.138H201.678V22.608H192.788V21.138ZM192.788 18.52H201.566V19.99H194.636V22.412H192.788V18.52ZM192.662 25.492H201.622V28.936H194.524V30.042H192.676V27.62H199.788V26.906H192.662V25.492ZM192.676 29.706H201.972V31.134L192.676 31.134V29.706ZM208.383 19.136C209.055 19.136 209.661 19.2713 210.203 19.542C210.744 19.8127 211.169 20.1907 211.477 20.676C211.785 21.152 211.939 21.7027 211.939 22.328C211.939 22.944 211.785 23.4947 211.477 23.98C211.169 24.4653 210.744 24.8433 210.203 25.114C209.661 25.3847 209.055 25.52 208.383 25.52C207.701 25.52 207.09 25.3847 206.549 25.114C206.007 24.8433 205.578 24.4653 205.261 23.98C204.953 23.4947 204.799 22.944 204.799 22.328C204.799 21.7027 204.953 21.152 205.261 20.676C205.578 20.1907 206.007 19.8127 206.549 19.542C207.09 19.2713 207.701 19.136 208.383 19.136ZM208.383 20.732C208.047 20.732 207.743 20.7973 207.473 20.928C207.211 21.0493 207.001 21.2313 206.843 21.474C206.693 21.7073 206.619 21.992 206.619 22.328C206.619 22.664 206.693 22.9533 206.843 23.196C207.001 23.4387 207.211 23.6253 207.473 23.756C207.743 23.8773 208.047 23.938 208.383 23.938C208.709 23.938 209.003 23.8773 209.265 23.756C209.526 23.6253 209.731 23.4387 209.881 23.196C210.039 22.9533 210.119 22.664 210.119 22.328C210.119 21.992 210.039 21.7073 209.881 21.474C209.731 21.2313 209.526 21.0493 209.265 20.928C209.003 20.7973 208.709 20.732 208.383 20.732ZM213.157 18.254L215.019 18.254V31.26H213.157V18.254ZM204.477 28.642L204.267 27.13C205.023 27.13 205.858 27.1253 206.773 27.116C207.697 27.0973 208.644 27.06 209.615 27.004C210.595 26.9387 211.542 26.8407 212.457 26.71L212.583 28.054C211.649 28.2407 210.702 28.376 209.741 28.46C208.779 28.5347 207.851 28.586 206.955 28.614C206.059 28.6327 205.233 28.642 204.477 28.642ZM222.736 20.326H224.206V21.782C224.206 22.5007 224.126 23.2193 223.968 23.938C223.818 24.6567 223.594 25.3333 223.296 25.968C222.997 26.5933 222.619 27.1533 222.162 27.648C221.714 28.1427 221.191 28.53 220.594 28.81L219.544 27.34C220.085 27.088 220.552 26.7567 220.944 26.346C221.345 25.9353 221.676 25.478 221.938 24.974C222.208 24.47 222.409 23.9473 222.54 23.406C222.67 22.8553 222.736 22.314 222.736 21.782V20.326ZM223.128 20.326H224.598V21.782C224.598 22.2673 224.663 22.7667 224.794 23.28C224.924 23.7933 225.116 24.288 225.368 24.764C225.629 25.24 225.956 25.674 226.348 26.066C226.749 26.4487 227.216 26.7613 227.748 27.004L226.712 28.488C226.114 28.208 225.592 27.8347 225.144 27.368C224.705 26.892 224.332 26.3553 224.024 25.758C223.725 25.1513 223.501 24.512 223.352 23.84C223.202 23.1587 223.128 22.4727 223.128 21.782V20.326ZM220.048 19.514H227.174V21.054H220.048V19.514ZM228.112 18.282H229.988V31.246H228.112V18.282ZM229.582 23.224H231.864V24.75H229.582V23.224ZM235.685 25.828H237.519V28.894H235.685V25.828ZM239.787 25.828L241.607 25.828V28.88L239.787 28.88V25.828ZM232.717 28.306L244.463 28.306V29.818L232.717 29.818V28.306ZM234.047 19.108L243.133 19.108V23.406L235.909 23.406V25.604H234.061V21.95H241.285V20.592H234.047V19.108ZM234.061 24.834L243.427 24.834V26.318L234.061 26.318V24.834ZM251.377 26.346C252.311 26.346 253.123 26.444 253.813 26.64C254.504 26.836 255.036 27.116 255.409 27.48C255.792 27.844 255.983 28.2827 255.983 28.796C255.983 29.3 255.792 29.734 255.409 30.098C255.036 30.4713 254.504 30.756 253.813 30.952C253.123 31.148 252.311 31.246 251.377 31.246C250.453 31.246 249.646 31.148 248.955 30.952C248.265 30.756 247.728 30.4713 247.345 30.098C246.972 29.734 246.785 29.3 246.785 28.796C246.785 28.2827 246.972 27.844 247.345 27.48C247.728 27.116 248.265 26.836 248.955 26.64C249.646 26.444 250.453 26.346 251.377 26.346ZM251.377 27.746C250.799 27.746 250.304 27.7833 249.893 27.858C249.483 27.9327 249.17 28.0493 248.955 28.208C248.75 28.3667 248.647 28.5627 248.647 28.796C248.647 29.0293 248.75 29.2253 248.955 29.384C249.17 29.5333 249.483 29.65 249.893 29.734C250.304 29.8087 250.799 29.846 251.377 29.846C251.965 29.846 252.465 29.8087 252.875 29.734C253.286 29.65 253.599 29.5333 253.813 29.384C254.028 29.2253 254.135 29.0293 254.135 28.796C254.135 28.5627 254.028 28.3667 253.813 28.208C253.599 28.0493 253.286 27.9327 252.875 27.858C252.465 27.7833 251.965 27.746 251.377 27.746ZM246.925 18.856H255.143V20.312H246.925V18.856ZM245.623 24.064H257.285V25.534H245.623V24.064ZM249.935 21.796H251.797V24.428H249.935V21.796ZM254.051 18.856H255.913V19.92C255.913 20.4333 255.899 20.97 255.871 21.53C255.843 22.09 255.736 22.706 255.549 23.378L253.701 23.196C253.879 22.5333 253.981 21.9453 254.009 21.432C254.037 20.9187 254.051 20.4147 254.051 19.92V18.856ZM261.12 26.472L263.01 26.472V31.232H261.12V26.472ZM265.6 26.472H267.49V31.232H265.6V26.472ZM258.474 25.492L270.206 25.492V26.99L258.474 26.99V25.492ZM264.312 18.716C265.236 18.716 266.048 18.8327 266.748 19.066C267.458 19.2993 268.008 19.6353 268.4 20.074C268.792 20.5127 268.988 21.026 268.988 21.614C268.988 22.202 268.792 22.7153 268.4 23.154C268.008 23.5833 267.458 23.9193 266.748 24.162C266.048 24.3953 265.236 24.512 264.312 24.512C263.388 24.512 262.572 24.3953 261.862 24.162C261.162 23.9193 260.612 23.5833 260.21 23.154C259.818 22.7153 259.622 22.202 259.622 21.614C259.622 21.026 259.818 20.5127 260.21 20.074C260.612 19.6353 261.162 19.2993 261.862 19.066C262.572 18.8327 263.388 18.716 264.312 18.716ZM264.312 20.186C263.743 20.186 263.248 20.242 262.828 20.354C262.418 20.466 262.1 20.6293 261.876 20.844C261.652 21.0493 261.54 21.306 261.54 21.614C261.54 21.922 261.652 22.1833 261.876 22.398C262.1 22.6033 262.418 22.762 262.828 22.874C263.248 22.9767 263.743 23.028 264.312 23.028C264.882 23.028 265.372 22.9767 265.782 22.874C266.193 22.762 266.51 22.6033 266.734 22.398C266.968 22.1833 267.084 21.922 267.084 21.614C267.084 21.306 266.968 21.0493 266.734 20.844C266.51 20.6293 266.193 20.466 265.782 20.354C265.372 20.242 264.882 20.186 264.312 20.186ZM275.109 18.618H284.783V20.018H275.109V18.618ZM275.207 21.656H284.671V23.056H275.207V21.656ZM276.761 19.164H278.623V22.552H276.761V19.164ZM281.269 19.164H283.131V22.552H281.269V19.164ZM274.087 23.714H285.819V25.17H274.087V23.714ZM275.431 25.884H284.391V29.118H277.293V30.322H275.445V27.872H282.557V27.214H275.431V25.884ZM275.445 29.804H284.741V31.162H275.445V29.804ZM296.248 18.268H298.026V26.99H296.248V18.268ZM294.722 21.404H296.78V22.902H294.722V21.404ZM293.49 18.506H295.226V25.912H293.49V18.506ZM287.498 24.372H288.394C289.02 24.372 289.58 24.3627 290.074 24.344C290.578 24.3253 291.054 24.2927 291.502 24.246C291.95 24.1993 292.408 24.1293 292.874 24.036L293.028 25.492C292.543 25.5947 292.067 25.6693 291.6 25.716C291.143 25.7627 290.653 25.7953 290.13 25.814C289.617 25.8233 289.038 25.828 288.394 25.828H287.498V24.372ZM287.47 19.178L292.398 19.178V23.126L289.29 23.126V25.352H287.498V21.782L290.592 21.782V20.634L287.47 20.634V19.178ZM292.636 26.444H294.218V26.654C294.218 27.2233 294.106 27.76 293.882 28.264C293.658 28.7587 293.332 29.2067 292.902 29.608C292.482 30 291.964 30.3313 291.348 30.602C290.732 30.882 290.023 31.0827 289.22 31.204L288.506 29.762C289.066 29.6873 289.566 29.58 290.004 29.44C290.452 29.2907 290.84 29.1133 291.166 28.908C291.493 28.6933 291.764 28.4647 291.978 28.222C292.202 27.9793 292.366 27.7273 292.468 27.466C292.58 27.1953 292.636 26.9247 292.636 26.654V26.444ZM292.888 26.444H294.484V26.654C294.484 26.9247 294.536 27.1953 294.638 27.466C294.741 27.7273 294.9 27.9793 295.114 28.222C295.338 28.4647 295.614 28.6933 295.94 28.908C296.267 29.1133 296.65 29.2907 297.088 29.44C297.536 29.58 298.04 29.6873 298.6 29.762L297.886 31.204C297.084 31.0827 296.374 30.882 295.758 30.602C295.142 30.3313 294.62 30 294.19 29.608C293.761 29.2067 293.434 28.7587 293.21 28.264C292.996 27.76 292.888 27.2233 292.888 26.654V26.444ZM299.845 24.54H311.577V26.01H299.845V24.54ZM304.773 23.224H306.621V25.198H304.773V23.224ZM300.867 18.632L310.541 18.632V20.116L300.867 20.116V18.632ZM300.965 22.062H310.429V23.532H300.965V22.062ZM302.519 19.164H304.381V23.028H302.519V19.164ZM307.027 19.164H308.889V23.028H307.027V19.164ZM301.217 26.864H310.177V31.106L301.217 31.106V26.864ZM308.357 28.32H303.037V29.636H308.357V28.32Z" fill="#171A1F"/>
</svg>
