<svg width="25" height="25" viewBox="0 0 25 25" fill="none" xmlns="http://www.w3.org/2000/svg">
<g id="Circle 09">
<path id="Vector" d="M18.4905 19.7815C18.3748 17.7346 17.2074 17.0849 15.5 16.5158C14.1954 16.0812 13.8362 14.7115 13.7377 13.9846" stroke="#565D6D" stroke-width="2.05714" stroke-miterlimit="10"/>
<path id="Vector_2" d="M11.2614 13.9838C11.1645 14.7072 10.8123 16.0786 9.49998 16.5158C7.79255 17.0849 6.6234 17.7329 6.50769 19.7798" stroke="#565D6D" stroke-width="2.05714" stroke-miterlimit="10"/>
<path id="Vector_3" d="M12.5 14.2143C10.6066 14.2143 9.07141 12.6791 9.07141 10.7857L9.07141 9.92857C9.07141 8.03514 10.6066 6.5 12.5 6.5C14.3934 6.5 15.9286 8.03514 15.9286 9.92857V10.7857C15.9286 12.6791 14.3934 14.2143 12.5 14.2143Z" stroke="#565D6D" stroke-width="2.05714" stroke-miterlimit="10" stroke-linecap="square"/>
<path id="Vector_4" d="M12.5 21.9286C17.7072 21.9286 21.9286 17.7072 21.9286 12.5C21.9286 7.29273 17.7072 3.07141 12.5 3.07141C7.29273 3.07141 3.07141 7.29273 3.07141 12.5C3.07141 17.7072 7.29273 21.9286 12.5 21.9286Z" stroke="#565D6D" stroke-width="2.05714" stroke-miterlimit="10" stroke-linecap="square"/>
</g>
</svg>
