<svg width="121" height="120" viewBox="0 0 121 120" fill="none" xmlns="http://www.w3.org/2000/svg">
<circle cx="60.5" cy="60" r="60" fill="#F1F8FD"/>
<path d="M60.5 34.4C46.42 34.4 34.9 45.92 34.9 60C34.9 74.08 46.42 85.6 60.5 85.6C74.58 85.6 86.1 74.08 86.1 60C86.1 45.92 74.58 34.4 60.5 34.4ZM72.82 57.92C72.5 58.24 72.18 58.4 71.7 58.4C71.22 58.4 70.9 58.24 70.58 57.92L62.1 49.44L62.1 74.4C62.1 75.36 61.46 76 60.5 76C59.54 76 58.9 75.36 58.9 74.4L58.9 49.44L50.42 57.92C49.78 58.56 48.82 58.56 48.18 57.92C47.54 57.28 47.54 56.32 48.18 55.68L59.38 44.48C59.54 44.32 59.7 44.16 59.86 44.16C60.18 44 60.66 44 61.14 44.16C61.3 44.32 61.46 44.32 61.62 44.48L72.82 55.68C73.46 56.32 73.46 57.28 72.82 57.92Z" fill="#379AE6"/>
</svg>
