<svg width="41" height="41" viewBox="0 0 41 41" fill="none" xmlns="http://www.w3.org/2000/svg">
<path d="M32.5 20.5V12.5L26.5 12.5L13.5 12.5L8.5 12.5C6.843 12.5 5.5 11.157 5.5 9.5L5.5 30.5C5.5 32.709 7.291 34.5 9.5 34.5L32.5 34.5L32.5 26.5" stroke="#424956" stroke-width="2.4" stroke-miterlimit="10" stroke-linecap="round"/>
<path d="M35.5 26.5L28.5 26.5C26.843 26.5 25.5 25.157 25.5 23.5C25.5 21.843 26.843 20.5 28.5 20.5L35.5 20.5V26.5Z" stroke="#424956" stroke-width="2.4" stroke-miterlimit="10" stroke-linecap="round"/>
<path d="M26.5 8.5V6.5L8.5 6.5C6.843 6.5 5.5 7.843 5.5 9.5C5.5 11.157 6.843 12.5 8.5 12.5" stroke="#424956" stroke-width="2.4" stroke-miterlimit="10" stroke-linecap="round"/>
</svg>
