<svg width="616" height="374" viewBox="0 0 616 374" fill="none" xmlns="http://www.w3.org/2000/svg">
<g clip-path="url(#clip0_255_117)">
<path d="M429.937 252.227C366.566 252.23 311.429 207.847 303.283 147.311L304.84 147.126C312.885 206.914 367.35 250.75 429.938 250.754C435.255 250.753 440.568 250.439 445.843 249.811C514.872 241.624 563.937 182.238 555.216 117.43L556.773 117.245C565.602 182.859 515.927 242.984 446.04 251.273C440.699 251.907 435.32 252.226 429.937 252.227Z" fill="#3F3D56"/>
<path d="M480.47 59.3962C476.341 49.1483 476.717 37.7802 481.516 27.7928C486.315 17.8054 495.143 10.0167 506.058 6.14016C516.973 2.26364 529.082 2.61683 539.719 7.12203C550.357 11.6272 558.653 19.9154 562.782 30.1632L561.314 30.6848C557.333 20.8024 549.333 12.8099 539.074 8.46533C528.816 4.12079 517.139 3.78015 506.613 7.51836C496.087 11.2566 487.574 18.7674 482.947 28.3986C478.319 38.0298 477.956 48.9923 481.938 58.8747L480.47 59.3962Z" fill="#3F3D56"/>
<path d="M607.937 131.501H528.176C526.039 131.499 523.989 130.7 522.478 129.281C520.966 127.862 520.116 125.938 520.114 123.931V24.7762C520.116 22.7693 520.966 20.8452 522.478 19.4262C523.989 18.0071 526.039 17.2088 528.176 17.2065H607.937C610.075 17.2088 612.124 18.0071 613.636 19.4262C615.147 20.8452 615.998 22.7693 616 24.7762V123.931C615.998 125.938 615.147 127.862 613.636 129.281C612.124 130.7 610.075 131.499 607.937 131.501Z" fill="#E6E6E6"/>
<path d="M576.247 125.56H533.783C531.781 125.558 529.862 124.811 528.446 123.481C527.03 122.152 526.234 120.351 526.232 118.471V30.2364C526.234 28.3568 527.03 26.5549 528.446 25.2259C529.862 23.8968 531.781 23.1493 533.783 23.1472H602.331C604.333 23.1493 606.252 23.8969 607.668 25.2259C609.083 26.5549 609.88 28.3569 609.882 30.2364V93.9823C609.872 102.354 606.325 110.381 600.019 116.301C593.714 122.221 585.164 125.551 576.247 125.56Z" fill="white"/>
<path d="M595.493 67.3954H540.621C540.146 67.3954 539.691 67.2184 539.356 66.9033C539.02 66.5882 538.832 66.1609 538.832 65.7153C538.832 65.2697 539.02 64.8423 539.356 64.5273C539.691 64.2122 540.146 64.0352 540.621 64.0352H595.493C595.967 64.0352 596.423 64.2122 596.758 64.5273C597.094 64.8423 597.282 65.2697 597.282 65.7153C597.282 66.1609 597.094 66.5882 596.758 66.9033C596.423 67.2184 595.967 67.3954 595.493 67.3954Z" fill="#E4E4E4"/>
<path d="M595.493 74.0343H540.621C540.147 74.0333 539.693 73.8559 539.358 73.5409C539.023 73.2259 538.835 72.7991 538.835 72.3541C538.835 71.909 539.023 71.4822 539.358 71.1672C539.693 70.8522 540.147 70.6748 540.621 70.6738H595.493C595.967 70.6738 596.423 70.8509 596.758 71.166C597.094 71.4811 597.282 71.9084 597.282 72.3541C597.282 72.7997 597.094 73.227 596.758 73.5421C596.423 73.8572 595.967 74.0343 595.493 74.0343Z" fill="#E4E4E4"/>
<path d="M564.407 80.6734H540.621C540.146 80.6734 539.691 80.4964 539.356 80.1813C539.02 79.8662 538.831 79.4388 538.831 78.9932C538.831 78.5476 539.02 78.1202 539.356 77.8051C539.691 77.49 540.146 77.313 540.621 77.313H564.407C564.881 77.313 565.336 77.49 565.672 77.8051C566.008 78.1202 566.196 78.5476 566.196 78.9932C566.196 79.4388 566.008 79.8662 565.672 80.1813C565.336 80.4964 564.881 80.6734 564.407 80.6734Z" fill="#E4E4E4"/>
<path d="M595.493 40.2836H540.621C540.146 40.2836 539.691 40.1066 539.356 39.7915C539.02 39.4764 538.832 39.0491 538.832 38.6035C538.832 38.1579 539.02 37.7305 539.356 37.4154C539.691 37.1004 540.146 36.9233 540.621 36.9233H595.493C595.967 36.9233 596.423 37.1004 596.758 37.4154C597.094 37.7305 597.282 38.1579 597.282 38.6035C597.282 39.0491 597.094 39.4764 596.758 39.7915C596.423 40.1066 595.967 40.2836 595.493 40.2836Z" fill="#E4E4E4"/>
<path d="M595.493 46.9224H540.621C540.146 46.9224 539.691 46.7454 539.356 46.4303C539.02 46.1152 538.831 45.6878 538.831 45.2422C538.831 44.7966 539.02 44.3692 539.356 44.0541C539.691 43.739 540.146 43.562 540.621 43.562H595.493C595.967 43.562 596.423 43.739 596.758 44.0541C597.094 44.3692 597.282 44.7966 597.282 45.2422C597.282 45.6878 597.094 46.1152 596.758 46.4303C596.423 46.7454 595.967 46.9224 595.493 46.9224Z" fill="#E4E4E4"/>
<path d="M564.407 53.5616H540.621C540.147 53.5607 539.693 53.3832 539.358 53.0682C539.023 52.7532 538.835 52.3264 538.835 51.8814C538.835 51.4364 539.023 51.0096 539.358 50.6946C539.693 50.3796 540.147 50.2021 540.621 50.2012H564.407C564.881 50.2021 565.335 50.3796 565.67 50.6946C566.005 51.0096 566.193 51.4364 566.193 51.8814C566.193 52.3264 566.005 52.7532 565.67 53.0682C565.335 53.3832 564.881 53.5607 564.407 53.5616Z" fill="#E4E4E4"/>
<path d="M595.493 95.456H540.621C540.146 95.456 539.691 95.279 539.356 94.9639C539.02 94.6488 538.832 94.2214 538.832 93.7758C538.832 93.3302 539.02 92.9029 539.356 92.5878C539.691 92.2727 540.146 92.0957 540.621 92.0957H595.493C595.967 92.0957 596.423 92.2727 596.758 92.5878C597.094 92.9029 597.282 93.3302 597.282 93.7758C597.282 94.2214 597.094 94.6488 596.758 94.9639C596.423 95.279 595.967 95.456 595.493 95.456Z" fill="#6C63FF"/>
<path d="M549.204 102.095H540.621C540.147 102.094 539.693 101.917 539.358 101.602C539.023 101.287 538.835 100.86 538.835 100.415C538.835 99.9698 539.023 99.543 539.358 99.228C539.693 98.913 540.147 98.7356 540.621 98.7346H549.204C549.679 98.7346 550.134 98.9116 550.47 99.2267C550.806 99.5418 550.994 99.9692 550.994 100.415C550.994 100.86 550.806 101.288 550.47 101.603C550.134 101.918 549.679 102.095 549.204 102.095Z" fill="#6C63FF"/>
<path d="M564.407 108.734H540.621C540.146 108.734 539.691 108.557 539.356 108.242C539.02 107.927 538.831 107.499 538.831 107.054C538.831 106.608 539.02 106.181 539.356 105.866C539.691 105.551 540.146 105.374 540.621 105.374H564.407C564.881 105.374 565.336 105.551 565.672 105.866C566.008 106.181 566.196 106.608 566.196 107.054C566.196 107.499 566.008 107.927 565.672 108.242C565.336 108.557 564.881 108.734 564.407 108.734Z" fill="#6C63FF"/>
<path d="M304.473 128.177C297.561 110.998 298.199 91.9455 306.245 75.208C314.292 58.4705 329.09 45.4183 347.384 38.9211C365.678 32.424 385.972 33.0137 403.803 40.5606C421.635 48.1076 435.544 61.9939 442.473 79.1666L441.005 79.6881C437.653 71.3588 432.585 63.7312 426.093 57.2409C419.6 50.7506 411.809 45.5248 403.164 41.8621C394.52 38.1993 385.192 36.1713 375.712 35.894C366.233 35.6167 356.788 37.0954 347.918 40.2457C339.047 43.396 330.925 48.1562 324.014 54.2543C317.103 60.3525 311.54 67.6691 307.642 75.7863C303.744 83.9035 301.587 92.6621 301.295 101.562C301.003 110.462 302.582 119.328 305.941 127.655L304.473 128.177Z" fill="#3F3D56"/>
<path d="M441.627 15.2376C445.763 15.2376 449.116 12.0895 449.116 8.20618C449.116 4.32286 445.763 1.1748 441.627 1.1748C437.491 1.1748 434.138 4.32286 434.138 8.20618C434.138 12.0895 437.491 15.2376 441.627 15.2376Z" fill="#E6E6E6"/>
<path d="M451.826 217.796C455.962 217.796 459.316 214.648 459.316 210.765C459.316 206.881 455.962 203.733 451.826 203.733C447.69 203.733 444.337 206.881 444.337 210.765C444.337 214.648 447.69 217.796 451.826 217.796Z" fill="#E6E6E6"/>
<path d="M259.612 50.593C263.748 50.593 267.101 47.445 267.101 43.5617C267.101 39.6783 263.748 36.5303 259.612 36.5303C255.476 36.5303 252.123 39.6783 252.123 43.5617C252.123 47.445 255.476 50.593 259.612 50.593Z" fill="#E6E6E6"/>
<path d="M363.01 332.482H191.561C186.966 332.477 182.561 330.761 179.312 327.711C176.063 324.66 174.235 320.525 174.23 316.211V103.073C174.235 98.7591 176.063 94.6233 179.312 91.5729C182.561 88.5225 186.966 86.8066 191.561 86.8018H363.01C367.605 86.8066 372.01 88.5225 375.259 91.5729C378.508 94.6233 380.336 98.7591 380.341 103.073V316.211C380.336 320.525 378.508 324.661 375.259 327.711C372.01 330.761 367.605 332.477 363.01 332.482Z" fill="#E6E6E6"/>
<path d="M297.573 319.289H203.612C199.428 319.285 195.417 317.722 192.459 314.945C189.501 312.167 187.837 308.401 187.832 304.473V114.81C187.837 110.882 189.501 107.116 192.459 104.339C195.417 101.561 199.429 99.9991 203.612 99.9946H350.959C355.142 99.9991 359.153 101.561 362.112 104.339C365.07 107.116 366.734 110.882 366.739 114.81V254.352C366.718 271.569 359.424 288.074 346.458 300.248C333.491 312.422 315.91 319.27 297.573 319.289Z" fill="white"/>
<path d="M336.26 136.407H218.311C217.806 136.407 217.305 136.314 216.837 136.133C216.37 135.952 215.945 135.686 215.588 135.351C215.23 135.015 214.946 134.617 214.752 134.178C214.559 133.74 214.459 133.27 214.459 132.795C214.459 132.32 214.559 131.85 214.752 131.412C214.946 130.973 215.23 130.575 215.588 130.24C215.945 129.904 216.37 129.638 216.837 129.457C217.305 129.276 217.806 129.183 218.311 129.184H336.26C336.766 129.183 337.266 129.276 337.734 129.457C338.201 129.638 338.626 129.904 338.984 130.24C339.341 130.575 339.625 130.973 339.819 131.412C340.012 131.85 340.112 132.32 340.112 132.795C340.112 133.27 340.012 133.74 339.819 134.178C339.625 134.617 339.341 135.015 338.984 135.351C338.626 135.686 338.201 135.952 337.734 136.133C337.266 136.314 336.766 136.407 336.26 136.407Z" fill="#6C63FF"/>
<path d="M336.26 150.677H218.311C217.291 150.677 216.312 150.297 215.591 149.62C214.87 148.942 214.464 148.024 214.464 147.066C214.464 146.108 214.87 145.189 215.591 144.512C216.312 143.835 217.291 143.454 218.311 143.454H336.26C337.28 143.454 338.259 143.835 338.98 144.512C339.701 145.189 340.107 146.108 340.107 147.066C340.107 148.024 339.701 148.942 338.98 149.62C338.259 150.297 337.28 150.677 336.26 150.677Z" fill="#6C63FF"/>
<path d="M269.439 164.948H218.311C217.291 164.948 216.312 164.568 215.591 163.89C214.87 163.213 214.464 162.294 214.464 161.337C214.464 160.379 214.87 159.46 215.591 158.783C216.312 158.105 217.291 157.725 218.311 157.725H269.439C270.459 157.725 271.438 158.105 272.159 158.783C272.881 159.46 273.286 160.379 273.286 161.337C273.286 162.294 272.881 163.213 272.159 163.89C271.438 164.568 270.459 164.948 269.439 164.948Z" fill="#6C63FF"/>
<path d="M336.26 194.837H218.311C217.806 194.837 217.305 194.745 216.837 194.563C216.37 194.382 215.945 194.116 215.588 193.781C215.23 193.445 214.946 193.047 214.752 192.609C214.559 192.17 214.459 191.7 214.459 191.225C214.459 190.751 214.559 190.281 214.752 189.842C214.946 189.404 215.23 189.005 215.588 188.67C215.945 188.334 216.37 188.068 216.837 187.887C217.305 187.706 217.806 187.613 218.311 187.614H336.26C336.766 187.613 337.266 187.706 337.734 187.887C338.201 188.068 338.626 188.334 338.984 188.67C339.341 189.005 339.625 189.404 339.819 189.842C340.012 190.281 340.112 190.751 340.112 191.225C340.112 191.7 340.012 192.17 339.819 192.609C339.625 193.047 339.341 193.445 338.984 193.781C338.626 194.116 338.201 194.382 337.734 194.563C337.266 194.745 336.766 194.837 336.26 194.837Z" fill="#E4E4E4"/>
<path d="M336.26 209.107H218.311C217.291 209.107 216.312 208.727 215.591 208.05C214.87 207.372 214.464 206.454 214.464 205.496C214.464 204.538 214.87 203.619 215.591 202.942C216.312 202.265 217.291 201.884 218.311 201.884H336.26C337.28 201.884 338.259 202.265 338.98 202.942C339.701 203.619 340.107 204.538 340.107 205.496C340.107 206.454 339.701 207.372 338.98 208.05C338.259 208.727 337.28 209.107 336.26 209.107Z" fill="#E4E4E4"/>
<path d="M269.439 223.378H218.311C217.291 223.378 216.312 222.998 215.591 222.321C214.87 221.643 214.464 220.725 214.464 219.767C214.464 218.809 214.87 217.89 215.591 217.213C216.312 216.536 217.291 216.155 218.311 216.155H269.439C270.459 216.155 271.438 216.536 272.159 217.213C272.881 217.89 273.286 218.809 273.286 219.767C273.286 220.725 272.881 221.643 272.159 222.321C271.438 222.998 270.459 223.378 269.439 223.378Z" fill="#E4E4E4"/>
<path d="M336.26 253.267H218.311C217.806 253.267 217.305 253.174 216.837 252.993C216.37 252.812 215.945 252.546 215.588 252.211C215.23 251.875 214.946 251.477 214.752 251.038C214.559 250.6 214.459 250.13 214.459 249.655C214.459 249.18 214.559 248.71 214.752 248.272C214.946 247.833 215.23 247.435 215.588 247.1C215.945 246.764 216.37 246.498 216.837 246.317C217.305 246.136 217.806 246.043 218.311 246.044H336.26C336.766 246.043 337.266 246.136 337.734 246.317C338.201 246.498 338.626 246.764 338.984 247.1C339.341 247.435 339.625 247.833 339.819 248.272C340.012 248.71 340.112 249.18 340.112 249.655C340.112 250.13 340.012 250.6 339.819 251.038C339.625 251.477 339.341 251.875 338.984 252.211C338.626 252.546 338.201 252.812 337.734 252.993C337.266 253.174 336.766 253.267 336.26 253.267Z" fill="#E4E4E4"/>
<path d="M336.26 267.538H218.311C217.291 267.538 216.312 267.157 215.591 266.48C214.87 265.802 214.464 264.884 214.464 263.926C214.464 262.968 214.87 262.049 215.591 261.372C216.312 260.695 217.291 260.314 218.311 260.314H336.26C337.28 260.314 338.259 260.695 338.98 261.372C339.701 262.049 340.107 262.968 340.107 263.926C340.107 264.884 339.701 265.802 338.98 266.48C338.259 267.157 337.28 267.538 336.26 267.538Z" fill="#E4E4E4"/>
<path d="M269.439 281.808H218.311C217.292 281.807 216.315 281.426 215.595 280.749C214.874 280.071 214.47 279.154 214.47 278.197C214.47 277.24 214.874 276.322 215.595 275.645C216.315 274.967 217.292 274.586 218.311 274.585H269.439C270.458 274.586 271.435 274.967 272.156 275.645C272.876 276.322 273.28 277.24 273.28 278.197C273.28 279.154 272.876 280.071 272.156 280.749C271.435 281.426 270.458 281.807 269.439 281.808Z" fill="#E4E4E4"/>
<path d="M495.109 174.222H408.283C405.956 174.22 403.725 173.351 402.08 171.806C400.434 170.261 399.509 168.167 399.506 165.982V58.0448C399.509 55.8601 400.434 53.7657 402.08 52.2209C403.725 50.6761 405.956 49.8072 408.283 49.8047H495.109C497.436 49.8072 499.667 50.6761 501.312 52.2209C502.957 53.7657 503.883 55.8601 503.885 58.0448V165.982C503.883 168.167 502.957 170.261 501.312 171.806C499.667 173.351 497.436 174.22 495.109 174.222Z" fill="#E6E6E6"/>
<path d="M462.922 167.723H414.386C412.216 167.72 410.136 166.91 408.601 165.469C407.067 164.029 406.204 162.076 406.201 160.038V63.9887C406.204 61.9514 407.067 59.9981 408.601 58.5574C410.136 57.1167 412.216 56.3063 414.386 56.304H489.006C491.176 56.3062 493.256 57.1166 494.791 58.5573C496.325 59.998 497.188 61.9513 497.191 63.9887V135.55C497.181 144.08 493.567 152.257 487.142 158.289C480.718 164.32 472.008 167.713 462.922 167.723Z" fill="white"/>
<path d="M481.562 74.9257H421.83C421.313 74.9257 420.818 74.733 420.453 74.39C420.087 74.047 419.882 73.5818 419.882 73.0967C419.882 72.6117 420.087 72.1465 420.453 71.8035C420.818 71.4605 421.313 71.2678 421.83 71.2678H481.562C482.079 71.2678 482.574 71.4605 482.939 71.8035C483.305 72.1465 483.51 72.6117 483.51 73.0967C483.51 73.5818 483.305 74.047 482.939 74.39C482.574 74.733 482.079 74.9257 481.562 74.9257Z" fill="#E4E4E4"/>
<path d="M481.562 82.1527H421.83C421.314 82.1517 420.82 81.9586 420.455 81.6157C420.091 81.2728 419.886 80.8081 419.886 80.3237C419.886 79.8392 420.091 79.3745 420.455 79.0316C420.82 78.6887 421.314 78.4956 421.83 78.4946H481.562C482.078 78.4956 482.572 78.6887 482.937 79.0316C483.301 79.3745 483.506 79.8392 483.506 80.3237C483.506 80.8081 483.301 81.2728 482.937 81.6157C482.572 81.9586 482.078 82.1517 481.562 82.1527Z" fill="#E4E4E4"/>
<path d="M447.722 89.3797H421.83C421.314 89.3788 420.82 89.1856 420.455 88.8427C420.091 88.4998 419.886 88.0352 419.886 87.5507C419.886 87.0663 420.091 86.6016 420.455 86.2587C420.82 85.9158 421.314 85.7227 421.83 85.7217H447.722C448.238 85.7227 448.733 85.9158 449.097 86.2587C449.462 86.6016 449.667 87.0663 449.667 87.5507C449.667 88.0352 449.462 88.4998 449.097 88.8427C448.733 89.1856 448.238 89.3788 447.722 89.3797Z" fill="#E4E4E4"/>
<path d="M481.562 104.516H421.83C421.313 104.516 420.818 104.323 420.453 103.98C420.087 103.637 419.882 103.172 419.882 102.687C419.882 102.202 420.087 101.737 420.453 101.394C420.818 101.051 421.313 100.858 421.83 100.858H481.562C482.079 100.858 482.574 101.051 482.939 101.394C483.305 101.737 483.51 102.202 483.51 102.687C483.51 103.172 483.305 103.637 482.939 103.98C482.574 104.323 482.079 104.516 481.562 104.516Z" fill="#6C63FF"/>
<path d="M465.871 111.743H421.83C421.313 111.743 420.818 111.55 420.453 111.207C420.087 110.864 419.882 110.399 419.882 109.914C419.882 109.429 420.087 108.964 420.453 108.621C420.818 108.278 421.313 108.085 421.83 108.085H465.871C466.388 108.085 466.883 108.278 467.248 108.621C467.614 108.964 467.819 109.429 467.819 109.914C467.819 110.399 467.614 110.864 467.248 111.207C466.883 111.55 466.388 111.743 465.871 111.743Z" fill="#6C63FF"/>
<path d="M447.722 118.97H421.83C421.314 118.969 420.82 118.776 420.455 118.433C420.091 118.09 419.886 117.625 419.886 117.141C419.886 116.656 420.091 116.192 420.455 115.849C420.82 115.506 421.314 115.313 421.83 115.312H447.722C448.238 115.313 448.733 115.506 449.097 115.849C449.462 116.192 449.667 116.656 449.667 117.141C449.667 117.625 449.462 118.09 449.097 118.433C448.733 118.776 448.238 118.969 447.722 118.97Z" fill="#6C63FF"/>
<path d="M481.562 134.106H421.83C421.313 134.106 420.818 133.913 420.453 133.57C420.087 133.227 419.882 132.762 419.882 132.277C419.882 131.792 420.087 131.327 420.453 130.984C420.818 130.641 421.313 130.448 421.83 130.448H481.562C482.079 130.448 482.574 130.641 482.939 130.984C483.305 131.327 483.51 131.792 483.51 132.277C483.51 132.762 483.305 133.227 482.939 133.57C482.574 133.913 482.079 134.106 481.562 134.106Z" fill="#E4E4E4"/>
<path d="M481.562 141.333H421.83C421.313 141.333 420.818 141.14 420.453 140.797C420.087 140.454 419.882 139.989 419.882 139.504C419.882 139.019 420.087 138.554 420.453 138.211C420.818 137.868 421.313 137.675 421.83 137.675H481.562C482.079 137.675 482.574 137.868 482.939 138.211C483.305 138.554 483.51 139.019 483.51 139.504C483.51 139.989 483.305 140.454 482.939 140.797C482.574 141.14 482.079 141.333 481.562 141.333Z" fill="#E4E4E4"/>
<path d="M447.722 148.56H421.83C421.314 148.559 420.82 148.366 420.455 148.023C420.091 147.68 419.886 147.216 419.886 146.731C419.886 146.247 420.091 145.782 420.455 145.439C420.82 145.096 421.314 144.903 421.83 144.902H447.722C448.238 144.903 448.733 145.096 449.097 145.439C449.462 145.782 449.667 146.247 449.667 146.731C449.667 147.216 449.462 147.68 449.097 148.023C448.733 148.366 448.238 148.559 447.722 148.56Z" fill="#E4E4E4"/>
<path d="M101.517 211.306C102.182 210.627 102.68 209.819 102.976 208.939C103.273 208.06 103.36 207.13 103.232 206.215C103.105 205.301 102.765 204.424 102.237 203.646C101.709 202.868 101.006 202.208 100.177 201.713L105.685 179.895L94.0274 183.893L90.5842 203.999C89.7904 205.361 89.5566 206.95 89.9269 208.464C90.2973 209.977 91.2462 211.311 92.5938 212.211C93.9413 213.112 95.594 213.517 97.2386 213.35C98.8832 213.183 100.406 212.456 101.517 211.306Z" fill="#FFB8B8"/>
<path d="M129.55 119.876L124.871 131.171C124.871 131.171 126.876 142.465 123.535 144.975C120.193 147.485 121.53 147.485 121.53 149.368C121.414 150.718 120.998 152.03 120.307 153.219C119.616 154.408 118.666 155.448 117.52 156.27C114.846 158.152 102.816 196.428 102.816 196.428H90.7862C91.1748 193.511 91.1748 190.56 90.7862 187.643C90.1178 183.251 92.7912 171.956 94.1278 170.074C95.4645 168.192 94.1278 165.682 94.1278 161.917C94.1278 158.152 96.8012 156.27 96.8012 149.995C96.8012 143.72 104.821 94.7776 104.153 89.1304C103.485 83.4831 110.836 78.4634 110.836 78.4634H117.52L129.55 119.876Z" fill="#6C63FF"/>
<path d="M157.856 143.832L168.975 190.42L97.7202 186.259L117.096 140.505L157.856 143.832Z" fill="#FFB8B8"/>
<path d="M2.53778 318.934C4.65892 326.133 7.97079 332.976 12.3525 339.212C22.1436 353.111 36.1556 363.74 51.5563 372.247C52.6233 372.844 53.706 373.426 54.7886 374H65.5919L65.9684 373.19V373.182L66.4077 372.247L66.4627 372.137L66.4862 372.247L66.9177 374H72.2212C72.6605 373.418 73.0921 372.836 73.5157 372.247C74.1355 371.385 74.7318 370.516 75.2966 369.632C76.2937 368.086 77.1847 366.482 77.964 364.83C78.0582 364.646 78.1367 364.461 78.2151 364.277L77.8621 363.916L79.3291 357.891L76.3793 357.434L79.6116 348.073C79.4939 347.726 79.3605 347.38 79.2193 347.034C77.407 342.725 74.0021 339.506 69.9617 336.803C65.8036 334.011 60.9629 331.772 56.5146 329.445C54.4276 328.347 52.3722 327.191 50.3715 325.968V325.961C47.8139 324.406 45.3321 322.744 42.9262 320.974C42.8851 320.949 42.8458 320.922 42.8085 320.893C42.7753 320.871 42.7438 320.846 42.7144 320.819C31.9283 312.908 22.8009 303.185 15.7965 292.144L15.7935 292.144L15.7909 292.142L15.7892 292.14L15.7886 292.137C15.5533 291.783 15.3337 291.43 15.114 291.069V291.062C12.2456 286.43 9.77687 281.59 7.73145 276.588V276.58C7.57447 276.212 7.43332 275.844 7.28426 275.476C7.08028 275.8 6.88414 276.124 6.69585 276.448L6.69282 276.448L6.69025 276.45L6.68856 276.452L6.688 276.455C-0.922106 289.235 -1.64392 304.629 2.53778 318.934Z" fill="#F0F0F0"/>
<path d="M6.6881 276.455C6.61189 283.275 7.36731 290.082 8.93964 296.741C9.64624 299.788 10.5262 302.797 11.5758 305.756C13.6133 311.545 16.2763 317.123 19.5232 322.403C19.7036 322.69 19.8763 322.97 20.0646 323.25V323.257C21.4522 325.454 22.9579 327.583 24.5757 329.636C27.024 332.907 30.0487 335.762 33.5196 338.077C36.3546 339.836 39.5606 340.999 42.9184 341.488C43.5461 341.598 44.1894 341.679 44.8406 341.753C47.4375 342.04 50.1206 342.151 52.6939 342.666C53.9973 342.908 55.2663 343.291 56.4755 343.808C60.6179 345.612 62.948 349.391 63.9679 353.428C64.1483 354.135 64.2895 354.849 64.3993 355.564C65.2545 361.051 64.3131 366.752 64.7995 372.247C64.8543 372.829 64.925 373.418 65.0112 374H65.5919L65.9684 373.19V373.183C65.9293 372.873 65.8979 372.564 65.8665 372.247C65.6782 369.547 65.6546 366.84 65.7958 364.137C65.8272 362.922 65.8507 361.699 65.835 360.477C65.8193 359.497 65.7801 358.517 65.7017 357.545V357.538C65.6467 356.934 65.584 356.337 65.4977 355.74C65.2486 353.914 64.7692 352.121 64.0698 350.4C63.3873 348.627 62.3131 347.01 60.9177 345.654C59.5223 344.298 57.8373 343.235 55.9733 342.534C54.8346 342.133 53.6613 341.825 52.4663 341.613C49.8382 341.141 47.1236 341.024 44.4797 340.714C44.1972 340.685 43.9148 340.648 43.6402 340.604C43.2871 340.552 42.942 340.493 42.5968 340.434C39.1375 339.858 35.8701 338.528 33.0566 336.553C29.7132 334.067 26.8063 331.105 24.4423 327.773C23.1557 326.042 21.9317 324.274 20.7942 322.454C20.7942 322.453 20.794 322.452 20.7937 322.452C20.7933 322.451 20.7927 322.45 20.792 322.449C20.7912 322.448 20.7904 322.448 20.7894 322.448C20.7884 322.447 20.7874 322.447 20.7864 322.447C20.7314 322.359 20.6765 322.278 20.6216 322.189L20.6138 322.175C15.7342 314.346 12.1722 305.856 10.0537 297.006C9.98309 296.682 9.90459 296.357 9.82624 296.033C8.3701 289.643 7.66762 283.122 7.7315 276.588V276.58C7.7315 276.271 7.73926 275.969 7.74711 275.66C7.7628 275.026 6.71941 274.886 6.70379 275.52C6.69595 275.829 6.68811 276.138 6.69595 276.448C6.69491 276.448 6.69388 276.448 6.69291 276.448C6.69195 276.449 6.69107 276.449 6.69034 276.45C6.6896 276.451 6.68902 276.451 6.68864 276.452C6.68825 276.453 6.68807 276.454 6.6881 276.455Z" fill="white"/>
<path d="M20.5125 323.05C17.523 324.476 14.091 324.857 10.8295 324.127C7.56805 323.396 4.68943 321.6 2.70775 319.061C2.30866 318.546 3.14252 317.939 3.54215 318.455C5.38284 320.823 8.06446 322.495 11.103 323.17C14.1416 323.845 17.3369 323.477 20.1124 322.134C20.7159 321.843 21.1126 322.761 20.5125 323.05Z" fill="white"/>
<path d="M42.496 340.728C44.6806 334.628 44.3361 327.979 41.5314 322.108C41.253 321.526 42.2289 321.151 42.507 321.732C45.4135 327.847 45.757 334.767 43.4688 341.11C43.2503 341.714 42.2787 341.329 42.496 340.728Z" fill="white"/>
<path d="M9.52312 296.124C10.8023 295.798 11.9753 295.18 12.9369 294.324C13.8986 293.468 14.6186 292.401 15.0325 291.219C15.2428 290.612 16.2142 290.998 16.0053 291.601C15.5416 292.905 14.7448 294.082 13.6846 295.03C12.6244 295.978 11.333 296.668 9.92329 297.04C9.79354 297.085 9.65022 297.082 9.52245 297.032C9.39468 296.982 9.29204 296.888 9.23541 296.769C9.18308 296.648 9.18394 296.512 9.23782 296.391C9.29169 296.27 9.39421 296.174 9.52312 296.124Z" fill="white"/>
<path d="M50.3715 325.961V325.968C50.6148 331.228 51.3154 336.46 52.4662 341.613V341.62C52.529 341.974 52.6153 342.32 52.6937 342.666C54.5873 350.635 57.242 358.428 60.6256 365.949C61.5592 368.071 62.5372 370.17 63.5598 372.247C63.8422 372.836 64.1325 373.418 64.4306 374H65.5918L65.9683 373.19V373.182L66.4076 372.247L66.4626 372.137L66.4861 372.247L66.9177 374H78.1366L80.3176 372.247L83.495 369.691L79.0545 365.139L78.3249 364.388L78.2151 364.277L77.862 363.916L79.329 357.891L76.3792 357.434L79.6116 348.073L81.1414 343.646L81.5259 342.534L83.7619 336.059L90.5089 337.245L91.6074 333.636C89.585 329.235 87.9018 324.703 86.5706 320.075C86.5627 320.039 86.547 320.009 86.5392 319.972C82.9746 307.508 81.9052 294.531 83.3854 281.7V281.692C83.4324 281.28 83.4873 280.86 83.5501 280.455V280.44C84.2226 275.123 85.3561 269.866 86.9394 264.722C87.0492 264.331 87.1747 263.948 87.2925 263.565C86.9315 263.713 86.5786 263.852 86.2176 264L86.2097 264.007H86.194C85.6213 264.243 85.0486 264.493 84.4916 264.758C71.1072 270.865 61.2612 282.326 55.6673 295.54C55.6517 295.577 55.636 295.606 55.6202 295.643C52.7014 302.57 50.962 309.886 50.4658 317.321C50.2777 320.197 50.2462 323.081 50.3715 325.961Z" fill="#F0F0F0"/>
<path d="M70.7305 374H71.9701C72.3624 373.403 72.7861 372.821 73.2097 372.247C73.8844 371.356 74.5801 370.484 75.2966 369.632C75.9164 368.896 76.5362 368.166 77.156 367.437C77.7993 366.678 78.4348 365.92 79.0546 365.139L78.325 364.388C78.2073 364.535 78.0896 364.682 77.964 364.83C75.9556 367.312 73.7825 369.698 71.923 372.247C71.5072 372.822 71.107 373.403 70.7305 374Z" fill="white"/>
<path d="M87.5528 263.977C87.3488 264.22 87.137 264.47 86.9408 264.721C85.411 266.584 83.9648 268.506 82.6023 270.488C80.1757 273.984 78.0205 277.639 76.1533 281.426C76.0042 281.721 75.8552 282.023 75.714 282.325C71.7184 290.599 69.1141 299.405 67.994 308.429C67.9783 308.517 67.9705 308.598 67.9626 308.687C67.7038 310.793 67.5364 312.907 67.4605 315.029C67.2103 319.023 67.6313 323.03 68.7079 326.902C68.8649 327.411 69.0375 327.911 69.2258 328.398C69.6977 329.589 70.2888 330.736 70.991 331.823C71.4955 332.616 72.0564 333.376 72.6699 334.099C73.0386 334.541 73.4231 334.975 73.831 335.395C74.0664 335.638 74.3096 335.881 74.5528 336.124C74.7568 336.308 74.9529 336.5 75.1569 336.684C77.2752 338.614 79.6132 340.404 81.5275 342.532L81.143 343.645C79.2993 341.45 76.9222 339.63 74.7803 337.715C73.4357 336.528 72.2118 335.226 71.1243 333.826C70.9831 333.635 70.8341 333.443 70.7007 333.244C69.9738 332.247 69.3461 331.189 68.8257 330.084C68.5589 329.532 68.3157 328.965 68.096 328.375C66.8142 324.567 66.2306 320.582 66.37 316.59C66.3953 314.033 66.5576 311.479 66.8565 308.937C66.8878 308.606 66.9271 308.282 66.9741 307.95C67.7697 301.9 69.2207 295.942 71.3048 290.169C73.9425 282.845 77.5706 275.869 82.1002 269.412C83.3947 267.564 84.7677 265.759 86.2191 263.999C86.4074 263.756 86.6035 263.52 86.8075 263.277C87.2232 262.776 87.9686 263.476 87.5528 263.977Z" fill="white"/>
<path d="M67.3475 309.03C64.0463 308.479 61.0614 306.843 58.9259 304.416C56.7904 301.989 55.6434 298.929 55.6896 295.781C55.6927 295.653 55.7488 295.53 55.846 295.44C55.9433 295.35 56.074 295.298 56.2107 295.297C56.3475 295.295 56.4795 295.344 56.579 295.432C56.6786 295.52 56.7378 295.641 56.7442 295.769C56.6954 298.7 57.7642 301.551 59.7577 303.807C61.7512 306.063 64.5381 307.576 67.6154 308.073C68.284 308.181 68.0123 309.138 67.3475 309.03Z" fill="white"/>
<path d="M73.5641 335.571C79.22 331.936 83.2086 326.432 84.7346 320.159C84.8852 319.537 85.905 319.789 85.7545 320.41C84.1535 326.936 79.9903 332.655 74.0958 336.426C73.5337 336.785 73.0051 335.928 73.5641 335.571Z" fill="white"/>
<path d="M75.8407 281.319C77.0707 281.783 78.4039 281.952 79.7207 281.812C81.0376 281.672 82.2967 281.227 83.3852 280.517C83.9421 280.152 84.4703 281.009 83.9169 281.372C82.7105 282.151 81.3192 282.641 79.8647 282.798C78.4102 282.956 76.9366 282.777 75.5728 282.277C75.4401 282.24 75.3273 282.157 75.2575 282.044C75.1876 281.932 75.1659 281.799 75.1968 281.672C75.233 281.546 75.3209 281.438 75.4414 281.371C75.562 281.305 75.7055 281.287 75.8407 281.319Z" fill="white"/>
<path d="M145.99 358.855L153.994 358.854L157.802 329.869H145.989L145.99 358.855Z" fill="#FFB8B8"/>
<path d="M143.28 355.148L155.933 354.439V359.528L167.962 367.328C168.556 367.713 169.004 368.267 169.239 368.908C169.475 369.549 169.486 370.243 169.271 370.89C169.056 371.538 168.626 372.103 168.045 372.505C167.463 372.907 166.76 373.124 166.038 373.124H150.974L148.378 368.089L147.364 373.124H141.684L143.28 355.148Z" fill="#2F2E41"/>
<path d="M70.3401 355.116L78.1628 356.709L88.4286 329.14L76.884 326.79L70.3401 355.116Z" fill="#FFB8B8"/>
<path d="M68.5286 350.954L81.054 352.779L79.9047 357.753L89.8994 367.77C90.3931 368.265 90.7054 368.895 90.7908 369.568C90.8762 370.241 90.7301 370.922 90.374 371.512C90.0179 372.102 89.4703 372.569 88.8112 372.846C88.1521 373.123 87.416 373.195 86.7103 373.051L71.9891 370.052L70.5885 364.616L68.4609 369.334L62.9104 368.203L68.5286 350.954Z" fill="#2F2E41"/>
<path d="M13.9685 373.123C13.9681 373.239 13.992 373.353 14.0388 373.459C14.0856 373.566 14.1544 373.662 14.2412 373.744C14.3279 373.825 14.431 373.89 14.5444 373.934C14.6579 373.978 14.7795 374 14.9022 374H234.803C235.051 374 235.288 373.908 235.463 373.743C235.638 373.579 235.737 373.356 235.737 373.123C235.737 372.891 235.638 372.668 235.463 372.504C235.288 372.339 235.051 372.247 234.803 372.247H14.9022C14.7795 372.246 14.6579 372.269 14.5444 372.313C14.431 372.357 14.3279 372.421 14.2412 372.503C14.1544 372.584 14.0856 372.681 14.0388 372.788C13.992 372.894 13.9681 373.008 13.9685 373.123Z" fill="#CCCCCC"/>
<path d="M170.794 229.378C165.177 258.363 163.773 270.877 163.773 270.877C163.773 270.877 167.986 275.488 165.177 278.125C162.368 280.762 165.177 286.029 165.177 286.029L157.824 341.153L156.255 349.255L141.531 347.304L143.703 339.68L139.922 286.691C139.922 286.691 137.114 281.418 138.518 280.099C139.922 278.781 137.114 270.877 137.114 270.877L133.607 208.298L111.851 276.807C111.851 276.807 113.962 279.444 111.851 281.418C109.749 283.392 105.544 293.276 105.544 293.276L89.5688 333.05L86.4306 338.943L84.7609 338.2L77.4175 336.904L76.0681 336.668L73.6674 336.241L72.1218 335.968L71.5961 335.88L69.0542 335.431L69.8231 332.227L75.4468 324.212L81.1676 284.902L81.4186 283.848L81.6854 282.736C81.6854 282.736 80.281 279.444 82.3836 277.462C82.9987 276.858 83.448 276.123 83.6927 275.32C83.9373 274.516 83.97 273.669 83.7879 272.851C83.7191 272.782 83.6561 272.708 83.5996 272.63C83.3513 272.31 83.18 271.943 83.0975 271.555C82.9092 270.73 83.074 269.573 84.494 268.24C84.8939 267.841 85.2296 267.39 85.4904 266.9C87.6244 263.106 88.6992 255.07 88.6992 255.07C88.6992 255.07 90.5978 191.423 96.8114 181.7C97.1409 181.192 103.737 171.434 104.082 171.236C111.096 167.288 165.837 172.004 165.837 172.004C165.837 172.004 169.147 180.352 169.296 181.221C170.104 186.105 175.557 204.791 170.794 229.378Z" fill="#2F2E41"/>
<path d="M227.599 87.8729C227.476 88.7881 227.14 89.6667 226.616 90.447C226.092 91.2273 225.392 91.8902 224.566 92.3891C223.74 92.888 222.807 93.2107 221.833 93.3345C220.86 93.4582 219.869 93.3801 218.931 93.1055L204.74 111.141L200.466 100.201L214.597 84.752C215.193 83.3032 216.334 82.1099 217.804 81.3982C219.275 80.6865 220.972 80.5059 222.575 80.8906C224.177 81.2753 225.574 82.1985 226.5 83.4854C227.426 84.7723 227.817 86.3334 227.599 87.8729Z" fill="#FFB8B8"/>
<path d="M98.1157 164.267C96.8147 164.267 96.0758 164.028 95.7896 163.514C95.3697 162.76 96.0984 161.775 96.9419 160.635C97.5678 159.89 98.0614 159.055 98.4037 158.162C98.9083 156.268 102.313 108.409 100.277 98.8463C99.8054 96.6337 100.211 93.7975 101.482 90.4167C104.953 81.1836 109.691 78.3459 119.13 72.6935C119.896 72.2346 120.693 71.7553 121.523 71.2556C122.596 70.6083 122.536 68.4618 122.473 66.1888C122.403 63.6626 122.33 61.05 123.648 59.4172L123.734 59.3107L123.872 59.2805C127.061 58.5885 137.784 57.3038 144.135 59.2899L144.223 59.3179L144.288 59.3791C145.797 60.7954 145.934 63.5388 146.067 66.1916C146.176 68.3697 146.279 70.4262 147.133 71.3196C153.658 78.1481 161.058 78.015 161.133 78.0136L161.5 78.0035L161.536 78.3459C164.374 105.45 168.95 146.36 169.922 147.97C169.973 148.043 170.001 148.129 170.004 148.216C170.007 148.304 169.984 148.391 169.938 148.467C168.511 150.971 103.019 164.267 98.1157 164.267Z" fill="#6C63FF"/>
<path d="M140.735 51.6081C151.423 51.6081 160.088 43.4734 160.088 33.4387C160.088 23.404 151.423 15.2693 140.735 15.2693C130.047 15.2693 121.382 23.404 121.382 33.4387C121.382 43.4734 130.047 51.6081 140.735 51.6081Z" fill="#FFB8B8"/>
<path d="M153.665 66.6515C152.748 65.4216 148.095 50.3972 146.056 45.7854C145.848 46.7766 143.51 50.6192 143.455 51.6418L143.435 52.0206L143.034 52.0693C142.431 52.1415 128.198 53.7635 120.79 45.8777C116.401 41.2066 115.406 34.2001 117.828 25.0489C117.388 24.9677 116.965 24.8151 116.581 24.5978C115.94 24.1816 115.404 23.6392 115.01 23.0084C114.615 22.3777 114.372 21.6738 114.298 20.9458L113.888 21.049C111.799 21.578 109.443 22.278 107.921 23.8938C106.227 25.6909 105.926 28.1325 105.606 30.7173C105.481 31.9513 105.274 33.1767 104.985 34.3862C103.953 38.2952 101.047 41.9566 96.3492 45.2689C91.6192 48.6038 86.7968 50.5115 82.0155 50.9382C76.3681 51.4441 70.9219 49.7021 67.4515 46.2822C63.5813 42.4692 62.5691 36.6028 65.0438 32.3335L65.4421 31.6459L65.8795 32.3122C68.0824 35.6688 72.8959 37.4818 77.5861 36.7197C81.6077 36.0667 85.5944 33.6693 88.8119 29.9694C91.749 26.592 93.7749 22.6032 95.7343 18.7455C97.7271 14.8232 99.7875 10.767 102.755 7.3254C106.103 3.44338 110.281 0.908221 114.519 0.186052C117.606 -0.337655 120.361 0.256036 122.078 1.81826C123.291 2.99216 124.009 4.53923 124.1 6.17258C125.155 5.95108 126.256 6.01047 127.278 6.34405C128.263 6.72048 129.122 7.34023 129.763 8.13762C130.404 8.93502 130.803 9.88034 130.918 10.8734C137.137 7.80213 145.368 8.3019 149.625 10.6062C151.408 11.5712 152.431 12.7865 152.613 14.1422C157.641 14.4058 163.049 19.0043 163.049 25.5194V25.9731H162.566C158.586 25.9731 154.953 28.1219 152.847 31.7208C151.61 33.8182 150.998 36.1895 151.075 38.5857C151.152 40.9818 151.915 43.3143 153.284 45.338C154.774 47.4845 155.791 49.8892 156.275 52.4105C156.76 54.9317 156.702 57.5186 156.106 60.0186L154.29 67.4889L153.665 66.6515Z" fill="#2F2E41"/>
<path d="M175.881 134.603L163.124 127.866C140.878 113.39 135.399 101.894 134.714 94.7958C133.983 87.2222 138.281 83.0797 138.464 82.9077L138.563 82.8394L150.063 77.323C151.524 76.6224 153.126 76.2212 154.765 76.1462C156.403 76.0712 158.04 76.324 159.566 76.8879C161.093 77.4517 162.474 78.3138 163.619 79.4168C164.763 80.5199 165.645 81.8388 166.206 83.2861L176.843 110.752L188.636 102.585L193.665 100.724L197.724 95.6295L208.87 89.5261L217.15 96.5229L206.737 116.075L200.951 117.459L199.724 120.426L199.615 120.491L175.881 134.603Z" fill="#6C63FF"/>
</g>
<defs>
<clipPath id="clip0_255_117">
<rect width="616" height="374" fill="white"/>
</clipPath>
</defs>
</svg>
