<svg width="41" height="41" viewBox="0 0 41 41" fill="none" xmlns="http://www.w3.org/2000/svg">
<path d="M19.328 16.6721L18.743 16.0861C18.3677 15.711 18.1569 15.2021 18.1569 14.6716C18.1569 14.141 18.3677 13.6322 18.743 13.2571L24.914 7.08607C25.2891 6.71082 25.7979 6.5 26.3285 6.5C26.8591 6.5 27.3679 6.71082 27.743 7.08607L33.914 13.2571C34.2892 13.6322 34.5001 14.141 34.5001 14.6716C34.5001 15.2021 34.2892 15.711 33.914 16.0861L27.743 22.2571C27.3679 22.6323 26.8591 22.8431 26.3285 22.8431C25.7979 22.8431 25.2891 22.6323 24.914 22.2571L24.328 21.6721" stroke="#424956" stroke-width="2.4" stroke-miterlimit="10" stroke-linecap="round"/>
<path d="M21.672 24.3281L22.257 24.9141C22.6322 25.2892 22.8431 25.798 22.8431 26.3286C22.8431 26.8591 22.6322 27.368 22.257 27.7431L16.086 33.9141C15.7109 34.2893 15.2021 34.5001 14.6715 34.5001C14.1409 34.5001 13.6321 34.2893 13.257 33.9141L7.086 27.7431C6.71075 27.368 6.49992 26.8591 6.49992 26.3286C6.49992 25.798 6.71075 25.2892 7.086 24.9141L13.257 18.7431C13.6321 18.3678 14.1409 18.157 14.6715 18.157C15.2021 18.157 15.7109 18.3678 16.086 18.7431L16.672 19.3281" stroke="#424956" stroke-width="2.4" stroke-miterlimit="10" stroke-linecap="round"/>
<path d="M15.5 25.5L25.5 15.5" stroke="#424956" stroke-width="2.4" stroke-miterlimit="10" stroke-linecap="square"/>
</svg>
